<?xml version="1.0" encoding="UTF-8" standalone="no"?>
<!DOCTYPE svg PUBLIC "-//W3C//DTD SVG 1.1//EN"
 "http://www.w3.org/Graphics/SVG/1.1/DTD/svg11.dtd">
<!-- Generated by graphviz version 12.2.0 (20241103.1931)
 -->
<!-- Pages: 1 -->
<svg width="591pt" height="454pt"
 viewBox="0.00 0.00 590.75 453.62" xmlns="http://www.w3.org/2000/svg" xmlns:xlink="http://www.w3.org/1999/xlink">
<g id="graph0" class="graph" transform="scale(1 1) rotate(0) translate(4 449.62)">
<polygon fill="#ffffff" stroke="none" points="-4,4 -4,-449.62 586.75,-449.62 586.75,4 -4,4"/>
<!-- Front Right Brake Temp -->
<g id="node1" class="node">
<title>Front Right Brake Temp</title>
<polygon fill="#ffffff" stroke="black" points="160.5,-261.75 0,-261.75 0,-143 160.5,-143 160.5,-261.75"/>
<polygon fill="none" stroke="black" points="0,-238 0,-261.75 160.5,-261.75 160.5,-238 0,-238"/>
<text text-anchor="start" x="8.62" y="-244.45" font-family="arial" font-size="14.00">Front Right Brake Temp</text>
<polygon fill="none" stroke="black" points="0,-214.25 0,-238 73.25,-238 73.25,-214.25 0,-214.25"/>
<text text-anchor="start" x="4" y="-220.7" font-family="arial" font-size="14.00">DTM 3&#45;Pin</text>
<polygon fill="none" stroke="black" points="73.25,-214.25 73.25,-238 122.5,-238 122.5,-214.25 73.25,-214.25"/>
<text text-anchor="start" x="77.25" y="-220.7" font-family="arial" font-size="14.00">female</text>
<polygon fill="none" stroke="black" points="122.5,-214.25 122.5,-238 160.5,-238 160.5,-214.25 122.5,-214.25"/>
<text text-anchor="start" x="126.5" y="-220.7" font-family="arial" font-size="14.00">3&#45;pin</text>
<polygon fill="none" stroke="black" points="0,-190.5 0,-214.25 95.25,-214.25 95.25,-190.5 0,-190.5"/>
<text text-anchor="start" x="39.38" y="-196.95" font-family="arial" font-size="14.00">5V</text>
<polygon fill="none" stroke="black" points="95.25,-190.5 95.25,-214.25 160.5,-214.25 160.5,-190.5 95.25,-190.5"/>
<text text-anchor="start" x="124.12" y="-196.95" font-family="arial" font-size="14.00">1</text>
<polygon fill="none" stroke="black" points="0,-166.75 0,-190.5 95.25,-190.5 95.25,-166.75 0,-166.75"/>
<text text-anchor="start" x="32.25" y="-173.2" font-family="arial" font-size="14.00">GND</text>
<polygon fill="none" stroke="black" points="95.25,-166.75 95.25,-190.5 160.5,-190.5 160.5,-166.75 95.25,-166.75"/>
<text text-anchor="start" x="124.12" y="-173.2" font-family="arial" font-size="14.00">2</text>
<polygon fill="none" stroke="black" points="0,-143 0,-166.75 95.25,-166.75 95.25,-143 0,-143"/>
<text text-anchor="start" x="28.88" y="-149.45" font-family="arial" font-size="14.00">Signal</text>
<polygon fill="none" stroke="black" points="95.25,-143 95.25,-166.75 160.5,-166.75 160.5,-143 95.25,-143"/>
<text text-anchor="start" x="124.12" y="-149.45" font-family="arial" font-size="14.00">3</text>
</g>
<!-- Front Right Wheel -->
<g id="node4" class="node">
<title>Front Right Wheel</title>
<polygon fill="#ffffff" stroke="black" points="578.25,-217.62 309,-217.62 309,-79.12 578.25,-79.12 578.25,-217.62"/>
<polygon fill="none" stroke="black" points="309,-193.88 309,-217.62 578.25,-217.62 578.25,-193.88 309,-193.88"/>
<text text-anchor="start" x="388.88" y="-200.32" font-family="arial" font-size="14.00">Front Right Wheel</text>
<polygon fill="none" stroke="black" points="309,-170.12 309,-193.88 377.25,-193.88 377.25,-170.12 309,-170.12"/>
<text text-anchor="start" x="336" y="-176.57" font-family="arial" font-size="14.00">2x</text>
<polygon fill="none" stroke="black" points="377.25,-170.12 377.25,-193.88 489.75,-193.88 489.75,-170.12 377.25,-170.12"/>
<text text-anchor="start" x="404.25" y="-176.57" font-family="arial" font-size="14.00">0.25 mm²</text>
<polygon fill="none" stroke="black" points="489.75,-170.12 489.75,-193.88 578.25,-193.88 578.25,-170.12 489.75,-170.12"/>
<text text-anchor="start" x="516.75" y="-176.57" font-family="arial" font-size="14.00">0.2 m</text>
<text text-anchor="start" x="403.62" y="-154.82" font-family="arial" font-size="14.00"> </text>
<text text-anchor="start" x="318.12" y="-135.07" font-family="arial" font-size="14.00">Front Right Brake Temp:1:5V</text>
<text text-anchor="start" x="504" y="-135.07" font-family="arial" font-size="14.00"> &#160;&#160;&#160;&#160;1:WH &#160;&#160;&#160;</text>
<polygon fill="#000000" stroke="none" points="309,-128.62 309,-130.62 578.25,-130.62 578.25,-128.62 309,-128.62"/>
<polygon fill="#ffffff" stroke="none" points="309,-126.62 309,-128.62 578.25,-128.62 578.25,-126.62 309,-126.62"/>
<polygon fill="#000000" stroke="none" points="309,-124.62 309,-126.62 578.25,-126.62 578.25,-124.62 309,-124.62"/>
<text text-anchor="start" x="311" y="-109.33" font-family="arial" font-size="14.00">Front Right Brake Temp:2:GND</text>
<text text-anchor="start" x="506.25" y="-109.33" font-family="arial" font-size="14.00"> &#160;&#160;&#160;&#160;2:BN &#160;&#160;&#160;</text>
<polygon fill="#000000" stroke="none" points="309,-102.88 309,-104.88 578.25,-104.88 578.25,-102.88 309,-102.88"/>
<polygon fill="#895956" stroke="none" points="309,-100.88 309,-102.88 578.25,-102.88 578.25,-100.88 309,-100.88"/>
<polygon fill="#000000" stroke="none" points="309,-98.88 309,-100.88 578.25,-100.88 578.25,-98.88 309,-98.88"/>
<text text-anchor="start" x="403.62" y="-83.58" font-family="arial" font-size="14.00"> </text>
</g>
<!-- Front Right Brake Temp&#45;&#45;Front Right Wheel -->
<g id="edge1" class="edge">
<title>Front Right Brake Temp:e&#45;&#45;Front Right Wheel:w</title>
<path fill="none" stroke="#000000" stroke-width="2" d="M160.5,-200.38C231.99,-202.36 232.51,-127.61 308,-125.63"/>
<path fill="none" stroke="#ffffff" stroke-width="2" d="M160.5,-202.38C233.99,-202.37 234.51,-127.63 308,-127.62"/>
<path fill="none" stroke="#000000" stroke-width="2" d="M160.5,-204.37C235.99,-202.39 236.51,-127.64 308,-129.62"/>
</g>
<!-- Front Right Brake Temp&#45;&#45;Front Right Wheel -->
<g id="edge2" class="edge">
<title>Front Right Brake Temp:e&#45;&#45;Front Right Wheel:w</title>
<path fill="none" stroke="#000000" stroke-width="2" d="M160.5,-176.63C232.4,-178.63 232.1,-101.88 308,-99.88"/>
<path fill="none" stroke="#895956" stroke-width="2" d="M160.5,-178.62C234.4,-178.62 234.1,-101.88 308,-101.88"/>
<path fill="none" stroke="#000000" stroke-width="2" d="M160.5,-180.62C236.4,-178.62 236.1,-101.87 308,-103.87"/>
</g>
<!-- Front Right Wheel Speed -->
<g id="node2" class="node">
<title>Front Right Wheel Speed</title>
<polygon fill="#ffffff" stroke="black" points="160.5,-118.75 0,-118.75 0,0 160.5,0 160.5,-118.75"/>
<polygon fill="none" stroke="black" points="0,-95 0,-118.75 160.5,-118.75 160.5,-95 0,-95"/>
<text text-anchor="start" x="4.12" y="-101.45" font-family="arial" font-size="14.00">Front Right Wheel Speed</text>
<polygon fill="none" stroke="black" points="0,-71.25 0,-95 73.25,-95 73.25,-71.25 0,-71.25"/>
<text text-anchor="start" x="4" y="-77.7" font-family="arial" font-size="14.00">DTM 3&#45;Pin</text>
<polygon fill="none" stroke="black" points="73.25,-71.25 73.25,-95 122.5,-95 122.5,-71.25 73.25,-71.25"/>
<text text-anchor="start" x="77.25" y="-77.7" font-family="arial" font-size="14.00">female</text>
<polygon fill="none" stroke="black" points="122.5,-71.25 122.5,-95 160.5,-95 160.5,-71.25 122.5,-71.25"/>
<text text-anchor="start" x="126.5" y="-77.7" font-family="arial" font-size="14.00">3&#45;pin</text>
<polygon fill="none" stroke="black" points="0,-47.5 0,-71.25 95.25,-71.25 95.25,-47.5 0,-47.5"/>
<text text-anchor="start" x="39.38" y="-53.95" font-family="arial" font-size="14.00">5V</text>
<polygon fill="none" stroke="black" points="95.25,-47.5 95.25,-71.25 160.5,-71.25 160.5,-47.5 95.25,-47.5"/>
<text text-anchor="start" x="124.12" y="-53.95" font-family="arial" font-size="14.00">1</text>
<polygon fill="none" stroke="black" points="0,-23.75 0,-47.5 95.25,-47.5 95.25,-23.75 0,-23.75"/>
<text text-anchor="start" x="32.25" y="-30.2" font-family="arial" font-size="14.00">GND</text>
<polygon fill="none" stroke="black" points="95.25,-23.75 95.25,-47.5 160.5,-47.5 160.5,-23.75 95.25,-23.75"/>
<text text-anchor="start" x="124.12" y="-30.2" font-family="arial" font-size="14.00">2</text>
<polygon fill="none" stroke="black" points="0,0 0,-23.75 95.25,-23.75 95.25,0 0,0"/>
<text text-anchor="start" x="28.88" y="-6.45" font-family="arial" font-size="14.00">Signal</text>
<polygon fill="none" stroke="black" points="95.25,0 95.25,-23.75 160.5,-23.75 160.5,0 95.25,0"/>
<text text-anchor="start" x="124.12" y="-6.45" font-family="arial" font-size="14.00">3</text>
</g>
<!-- Front Right Wheel Speed&#45;&#45;Front Right Wheel -->
<g id="edge3" class="edge">
<title>Front Right Wheel Speed:e&#45;&#45;Front Right Wheel:w</title>
<path fill="none" stroke="#000000" stroke-width="2" d="M160.5,-57.38C234.73,-59.29 237.76,-127.54 308,-125.63"/>
<path fill="none" stroke="#ffffff" stroke-width="2" d="M160.5,-59.38C232.73,-59.38 235.77,-127.62 308,-127.63"/>
<path fill="none" stroke="#000000" stroke-width="2" d="M160.5,-61.37C230.74,-59.46 233.77,-127.71 308,-129.62"/>
</g>
<!-- Front Right Wheel Speed&#45;&#45;Front Right Wheel -->
<g id="edge4" class="edge">
<title>Front Right Wheel Speed:e&#45;&#45;Front Right Wheel:w</title>
<path fill="none" stroke="#000000" stroke-width="2" d="M160.5,-33.63C234.36,-35.51 238.13,-101.76 308,-99.88"/>
<path fill="none" stroke="#895956" stroke-width="2" d="M160.5,-35.62C232.36,-35.62 236.14,-101.88 308,-101.88"/>
<path fill="none" stroke="#000000" stroke-width="2" d="M160.5,-37.62C230.37,-35.74 234.14,-101.99 308,-103.87"/>
</g>
<!-- Front Ride Height Sensor -->
<g id="node3" class="node">
<title>Front Ride Height Sensor</title>
<polygon fill="#ffffff" stroke="black" points="160.5,-414.75 0,-414.75 0,-296 160.5,-296 160.5,-414.75"/>
<polygon fill="none" stroke="black" points="0,-391 0,-414.75 160.5,-414.75 160.5,-391 0,-391"/>
<text text-anchor="start" x="4.12" y="-397.45" font-family="arial" font-size="14.00">Front Ride Height Sensor</text>
<polygon fill="none" stroke="black" points="0,-367.25 0,-391 73.25,-391 73.25,-367.25 0,-367.25"/>
<text text-anchor="start" x="4" y="-373.7" font-family="arial" font-size="14.00">DTM 3&#45;Pin</text>
<polygon fill="none" stroke="black" points="73.25,-367.25 73.25,-391 122.5,-391 122.5,-367.25 73.25,-367.25"/>
<text text-anchor="start" x="77.25" y="-373.7" font-family="arial" font-size="14.00">female</text>
<polygon fill="none" stroke="black" points="122.5,-367.25 122.5,-391 160.5,-391 160.5,-367.25 122.5,-367.25"/>
<text text-anchor="start" x="126.5" y="-373.7" font-family="arial" font-size="14.00">3&#45;pin</text>
<polygon fill="none" stroke="black" points="0,-343.5 0,-367.25 95.25,-367.25 95.25,-343.5 0,-343.5"/>
<text text-anchor="start" x="39.38" y="-349.95" font-family="arial" font-size="14.00">5V</text>
<polygon fill="none" stroke="black" points="95.25,-343.5 95.25,-367.25 160.5,-367.25 160.5,-343.5 95.25,-343.5"/>
<text text-anchor="start" x="124.12" y="-349.95" font-family="arial" font-size="14.00">1</text>
<polygon fill="none" stroke="black" points="0,-319.75 0,-343.5 95.25,-343.5 95.25,-319.75 0,-319.75"/>
<text text-anchor="start" x="32.25" y="-326.2" font-family="arial" font-size="14.00">GND</text>
<polygon fill="none" stroke="black" points="95.25,-319.75 95.25,-343.5 160.5,-343.5 160.5,-319.75 95.25,-319.75"/>
<text text-anchor="start" x="124.12" y="-326.2" font-family="arial" font-size="14.00">2</text>
<polygon fill="none" stroke="black" points="0,-296 0,-319.75 95.25,-319.75 95.25,-296 0,-296"/>
<text text-anchor="start" x="28.88" y="-302.45" font-family="arial" font-size="14.00">Signal</text>
<polygon fill="none" stroke="black" points="95.25,-296 95.25,-319.75 160.5,-319.75 160.5,-296 95.25,-296"/>
<text text-anchor="start" x="124.12" y="-302.45" font-family="arial" font-size="14.00">3</text>
</g>
<!-- Front Left Wheel -->
<g id="node5" class="node">
<title>Front Left Wheel</title>
<polygon fill="#ffffff" stroke="black" points="582.75,-445.62 304.5,-445.62 304.5,-307.12 582.75,-307.12 582.75,-445.62"/>
<polygon fill="none" stroke="black" points="304.5,-421.88 304.5,-445.62 582.75,-445.62 582.75,-421.88 304.5,-421.88"/>
<text text-anchor="start" x="393.38" y="-428.32" font-family="arial" font-size="14.00">Front Left Wheel</text>
<polygon fill="none" stroke="black" points="304.5,-398.12 304.5,-421.88 375.75,-421.88 375.75,-398.12 304.5,-398.12"/>
<text text-anchor="start" x="333" y="-404.57" font-family="arial" font-size="14.00">2x</text>
<polygon fill="none" stroke="black" points="375.75,-398.12 375.75,-421.88 491.25,-421.88 491.25,-398.12 375.75,-398.12"/>
<text text-anchor="start" x="404.25" y="-404.57" font-family="arial" font-size="14.00">0.25 mm²</text>
<polygon fill="none" stroke="black" points="491.25,-398.12 491.25,-421.88 582.75,-421.88 582.75,-398.12 491.25,-398.12"/>
<text text-anchor="start" x="519.75" y="-404.57" font-family="arial" font-size="14.00">0.2 m</text>
<text text-anchor="start" x="403.62" y="-382.82" font-family="arial" font-size="14.00"> </text>
<text text-anchor="start" x="313.62" y="-363.07" font-family="arial" font-size="14.00">Front Ride Height Sensor:1:5V</text>
<text text-anchor="start" x="508.5" y="-363.07" font-family="arial" font-size="14.00"> &#160;&#160;&#160;&#160;1:WH &#160;&#160;&#160;</text>
<polygon fill="#000000" stroke="none" points="304.5,-356.62 304.5,-358.62 582.75,-358.62 582.75,-356.62 304.5,-356.62"/>
<polygon fill="#ffffff" stroke="none" points="304.5,-354.62 304.5,-356.62 582.75,-356.62 582.75,-354.62 304.5,-354.62"/>
<polygon fill="#000000" stroke="none" points="304.5,-352.62 304.5,-354.62 582.75,-354.62 582.75,-352.62 304.5,-352.62"/>
<text text-anchor="start" x="306.5" y="-337.32" font-family="arial" font-size="14.00">Front Ride Height Sensor:2:GND</text>
<text text-anchor="start" x="510.75" y="-337.32" font-family="arial" font-size="14.00"> &#160;&#160;&#160;&#160;2:BN &#160;&#160;&#160;</text>
<polygon fill="#000000" stroke="none" points="304.5,-330.88 304.5,-332.88 582.75,-332.88 582.75,-330.88 304.5,-330.88"/>
<polygon fill="#895956" stroke="none" points="304.5,-328.88 304.5,-330.88 582.75,-330.88 582.75,-328.88 304.5,-328.88"/>
<polygon fill="#000000" stroke="none" points="304.5,-326.88 304.5,-328.88 582.75,-328.88 582.75,-326.88 304.5,-326.88"/>
<text text-anchor="start" x="403.62" y="-311.57" font-family="arial" font-size="14.00"> </text>
</g>
<!-- Front Ride Height Sensor&#45;&#45;Front Left Wheel -->
<g id="edge5" class="edge">
<title>Front Ride Height Sensor:e&#45;&#45;Front Left Wheel:w</title>
<path fill="none" stroke="#000000" stroke-width="2" d="M160.5,-353.38C224.53,-353.38 240.53,-353.63 304.5,-353.63"/>
<path fill="none" stroke="#ffffff" stroke-width="2" d="M160.5,-355.38C224.5,-355.38 240.5,-355.62 304.5,-355.63"/>
<path fill="none" stroke="#000000" stroke-width="2" d="M160.5,-357.37C224.47,-357.37 240.47,-357.62 304.5,-357.62"/>
</g>
<!-- Front Ride Height Sensor&#45;&#45;Front Left Wheel -->
<g id="edge6" class="edge">
<title>Front Ride Height Sensor:e&#45;&#45;Front Left Wheel:w</title>
<path fill="none" stroke="#000000" stroke-width="2" d="M160.5,-329.63C224.29,-329.64 240.28,-327.89 304.5,-327.88"/>
<path fill="none" stroke="#895956" stroke-width="2" d="M160.5,-331.63C224.5,-331.62 240.5,-329.87 304.5,-329.88"/>
<path fill="none" stroke="#000000" stroke-width="2" d="M160.5,-333.62C224.72,-333.61 240.71,-331.86 304.5,-331.87"/>
</g>
</g>
</svg>
